<?xml version="1.0" encoding="utf-8"?>
<!-- Generator: Adobe Illustrator 16.0.4, SVG Export Plug-In . SVG Version: 6.00 Build 0)  -->
<!DOCTYPE svg PUBLIC "-//W3C//DTD SVG 1.1//EN" "http://www.w3.org/Graphics/SVG/1.1/DTD/svg11.dtd">
<svg version="1.1" id="Layer_2" xmlns="http://www.w3.org/2000/svg" xmlns:xlink="http://www.w3.org/1999/xlink" x="0px" y="0px"
	 width="533px" height="454px" viewBox="0 0 533 454" enable-background="new 0 0 533 454" xml:space="preserve">
<g>
	<path d="M387.989,160.154c3.29,2.904,8.704,6.169,14.328,10.068c5.931,4.113,13.624,9.368,19.943,13.941
		c9.149,6.623,17.425,12.972,17.425,12.972s-2.13-10.068-0.194-14.328c3.297-7.252,12.974-11.618,17.039-13.359
		c5.422,3.873,14.037,10.94,23.621,20.524c5.509,5.508,15.438,16.209,19.943,22.168c7.945,10.511,12.198,18.491,12.198,18.491
		s-5.422-0.775-9.294,0.387c-3.873,1.162-13.942,3.873-17.038,5.422c-3.099,1.549-5.809,4.646-1.936,7.744
		c3.871,3.098,9.681,7.358,12.004,8.906s6.583,2.323,6.583,2.323s-5.1,5.737-9.294,9.681c-4.841,4.551-13.167,8.519-17.813,10.455
		c-4.647,1.937-18.973,4.26-25.169,4.647c-6.198,0.388-18.151,0.409-25.173,2.324c-8.519,2.322-13.357,7.455-16.069,15.294
		c2.937,1.889,13.36,8.713,13.36,8.713s4.198-4.209,6.133-6.531c1.938-2.324,6.064-5.859,9.162-7.021
		c3.098-1.16,9.875-3.291,17.62-2.904c8.37,0.418,13.741,0.959,17.039,6.002c3.291,5.033,6.389,13.941,6.389,20.525
		c0,6.582,0.967,13.164-4.065,34.076c7.163-9.682,10.454-13.941,13.165-27.881c2.711-13.941,1.936-24.785-1.936-34.078
		c7.357-5.422,8.905-6.972,14.715-13.167c5.808-6.195,23.622-31.753,26.332-35.237c2.711-3.486,3.871-6.195,0.774-12.004
		s-20.523-27.108-30.592-37.175c-10.069-10.068-28.431-25.295-37.95-31.366c-11.229-7.164-23.037-11.856-38.529-11.617
		c-12.586,0.194-17.909,2.13-23.718,5.615C391.184,157.25,387.989,160.154,387.989,160.154z"/>
	<path d="M365.628,318.729c14.811,3.193,32.696,6.736,44.726,10.746c13.939,4.646,35.589,13.602,41.821,16.844
		c7.26,3.775,19.458,11.326,19.458,11.326c-1.162-13.648-26.139-34.27-42.983-38.916
		C414.304,314.77,393.798,310.305,365.628,318.729z"/>
	<path d="M311.606,300.43c9.585,10.457,25.849,22.945,35.433,30.496c9.585,7.551,23.525,18.006,30.205,22.652
		c6.681,4.648,25.558,17.428,25.558,17.428c-16.846-2.324-29.043-5.811-36.885-8.715c-7.841-2.902-15.683-6.098-20.329-9.002
		s-10.746-6.68-10.746-6.68s-0.291,7.551-1.452,15.102c-1.162,7.553-3.486,16.846-5.229,22.363s-4.938,13.65-7.551,19.459
		c1.743-17.135,1.452-41.822,1.161-51.406c-0.204-6.732-3.195-24.105-4.065-28.752C316.834,318.729,311.606,300.43,311.606,300.43z"
		/>
	<path d="M331.938,180.775c3.484,6.97,11.035,15.393,15.683,20.04c4.646,4.647,13.65,10.746,19.749,16.845
		c6.1,6.099,11.551,11.018,15.393,15.683c4.066,4.938,8.422,13.94,8.422,13.94c1.162-10.456-2.903-20.33-5.808-26.719
		s-11.617-16.555-18.296-20.331c-6.681-3.775-16.556-8.712-20.913-11.326C341.812,186.292,331.938,180.775,331.938,180.775z"/>
	<path d="M357.38,91.772c2.079-4.009,5.176-8.76,9.7-13.324c5.371-5.421,12.39-10.068,19.748-12.779
		c7.357-2.71,19.168-4.841,25.558-5.131c-3.485,3.195-9.825,8.822-13.65,12.779c-4.211,4.356-8.422,10.166-8.422,10.166
		c7.745-2.71,18.006-3.776,23.96-3.485c5.471,0.266,15.199,0.919,24.105,3.63c-6.824,1.452-18.668,4.779-24.251,6.681
		c-6.825,2.323-17.619,7.89-17.619,7.89c6.196,4.646,11.229,9.39,14.715,13.552c1.88,2.246,4.932,5.947,7.841,10.359
		c2.488,3.769,3.632,5.809,5.374,8.858c-7.018-6.051-19.164-14.315-32.576-21.927c-14.329-8.132-24.009-12.391-34.595-16.892
		L357.38,91.772z"/>
	<path d="M342.684,71.09c0,0,4.113-7.57,6.534-10.988c2.468-3.485,8.544-9.687,13.795-14.086
		c5.373-4.501,14.812-11.472,24.541-17.425c0,0-13.94,1.452-21.248,3.001c-6.616,1.402-17.523,4.259-25.946,8.519
		c-8.499,4.299-20.136,13.553-20.136,13.553S313.79,41.6,309.864,35.561c-5.034-7.745-16.36-21.007-26.815-27.203
		c3.382,9.3,11.52,26.961,12.294,34.318c0,0-11.236-11.013-23.814-20.185C257.588,12.327,243.163,6.035,227.673,1
		c0,0,19.601,15.708,27.155,22.508c7.261,6.535,14.667,14.765,21.637,22.508c6.838,7.597,12.392,13.457,19.363,23.912
		c-7.357-5.421-16.265-8.52-24.396-9.681c-6.239-0.892-11.666-1.307-18.975-0.774c-2.134,0.155-4.415,0.702-6.615,1.413
		c-3.154-5.248-8.674-13.695-14.683-19.517c-6.196-6.001-24.009-17.136-24.009-17.136c9.487,0.291,18.278,0.841,25.17,2.711
		c12.488,3.388,18.297,5.711,27.881,10.068c-9.002-10.165-31.366-27.01-64.668-29.817c-10.812-0.911-24.062,0.556-35.626,3.486
		c-21.395,5.421-47.63,18.975-47.63,18.975c27.106-5.132,59.925-5.422,84.03,5.034c11.942,5.18,25.558,14.327,31.366,20.911
		c2.824,3.201,5.735,6.854,7.985,9.768c-5.34,3-11.495,10.02-14.18,14.241c-2.711,4.26-5.035,10.455-5.422,18.2
		c0,0-9.293-4.259-13.166-5.422c-3.872-1.162-12.004-2.518-21.298-2.904c-9.293-0.387-18.139,2.059-26.912,4.84
		c-7.939,2.517-14.328,7.164-20.718,12.779c0,0,10.649-3.292,14.909-4.066c4.259-0.774,12.778-2.323,20.91-1.549
		s16.07,2.904,23.815,5.615c7.746,2.71,15.296,7.164,19.75,10.068c0,0-3.679,11.036-4.647,16.651
		c-0.967,5.615,1.549,14.134,4.259,20.523c0.969-3.873,2.905-10.939,4.841-14.812c1.936-3.873,2.13-5.324,7.164-11.133
		c0,0-3.098,17.812-3.098,22.073c0,4.259,0,12.391,1.549,20.911c0,0,7.552,7.745,15.489,12.779
		c-1.161-4.453-1.355-6.196-2.517-10.843c-1.162-4.647-2.53-13.308-2.711-18.782c-0.193-5.809,0.195-12.584,0.195-12.584
		s4.84,7.938,9.293,12.778c0,0-1.936-12.004-3.485-17.813s-3.872-13.553-5.808-22.072c-1.937-8.52-3.204-23.941,7.163-35.724
		c12.779-14.521,38.918-8.422,51.31-1.064c6.113,3.63,10.454,7.745,14.716,10.068c4.26,2.323,19.07,7.841,19.07,7.841
		s-4.744-9.39-11.328-16.748c8.547,1.379,24.158,6.093,38.312,11.35l0.117-0.375c2.706-8.329,10.753-21.042,10.753-21.042
		c2.711-4.26,8.518-10.843,17.811-19.75c-7.354,1.937-16.264,6.196-21.686,9.294C354.688,61.797,349.653,65.282,342.684,71.09z"/>
	<path d="M243.55,168.674c3.099,8.132,13.941,27.106,13.941,27.106c13.165,8.519,26.815,14.037,37.562,23.622
		c13.823,12.329,24.783,30.593,24.783,30.593c-2.323-14.715-3.484-22.848-8.131-32.529c-4.646-9.681-13.168-19.75-17.814-25.945
		c-4.646-6.196-13.553-17.426-16.264-22.073c-2.711-4.647-6.195-15.102-6.195-15.102c-1.549,6.97,0.387,20.911,3.098,31.753
		C268.914,181.065,243.55,168.674,243.55,168.674z"/>
	<g>
		<path d="M257.491,90.646c3.678-0.774,7.357-1.162,13.358-1.356c2.855-0.093,5.748-0.14,8.002-0.166
			c-2.697-1.981-6.125-3.963-9.743-5.255c-5.422-1.936-10.504-0.823-13.844,1.646c-2.269,1.676-4.18,4.141-5.106,6.909
			C252.483,91.761,255.321,91.103,257.491,90.646z"/>
		<path d="M259.427,103.23c2.324-0.774,13.554-1.548,18.588-1.548c5.036,0,12.392,1.548,20.522,2.324
			c-0.934-0.78-3.317-2.441-6.003-4.321c-4.936-1.15-10.548-2.24-14.521-2.649c-4.497-0.465-12.777-1.162-18.974-0.581
			c-3.492,0.327-6.884,1.082-10.025,1.948c-0.157,2.284-0.023,4.475,0.343,6.184c1.162,5.421,3.852,8.305,7.358,11.811
			c3.679,3.678,6.583,5.421,13.166,9.294c6.582,3.872,12.004,5.42,19.361,10.455c0,0,5.229-7.358,2.034-20.136
			C279.079,109.33,268.721,105.941,259.427,103.23z"/>
	</g>
	<path d="M214.314,75.059c-4.066-10.455-12.779-16.845-18.587-20.911c-3.902-2.731-16.555-8.422-28.171-9.874
		c-10.985-1.373-31.076-0.291-44.726,3.195c-13.65,3.485-36.884,12.488-49.954,20.91c-13.069,8.422-27.009,21.202-36.593,30.786
		C51.965,89,59.225,84.934,66.777,81.448c7.551-3.484,27.01-12.197,45.307-15.682c-20.331,9.584-32.237,20.04-39.498,25.268
		c-7.261,5.227-30.495,28.461-38.917,39.788c-8.423,11.327-17.135,23.815-23.234,35.433c12.198-6.39,22.073-12.779,27.01-15.103
		c4.937-2.323,11.327-6.099,22.073-11.036c-14.521,20.04-21.783,33.109-27.591,41.821c-5.809,8.713-18.297,30.786-24.106,42.983
		c23.437-29.742,53.699-61.683,61.542-70.105c5.458-5.861,44.032-46.854,60.438-58.554c-11.326,2.385-30.233,8.747-40.398,13.394
		c-11.238,5.137-23.145,12.137-31.627,17.392c14.231-18.587,24.396-24.977,30.495-29.624c6.099-4.646,19.458-13.649,33.689-18.877
		s29.914-8.423,40.66-9.003c10.746-0.581,18.007-1.163,27.881-0.291C200.373,70.122,214.314,75.059,214.314,75.059z"/>
	<path d="M71.132,188.616c-7.841,4.356-25.616,18.257-32.818,24.686c-8.131,7.261-28.752,27.882-36.013,39.789
		c14.231-10.746,25.848-17.136,35.432-21.492c-8.131,13.069-11.617,22.363-13.649,27.88c-2.034,5.52-5.228,19.459-5.228,19.459
		c4.646,9.294,7.26,11.909,9.293,15.975c2.033,4.064,7.551,11.906,11.617,18.295c-2.614-15.684-1.296-25.939-0.871-29.333
		c0.871-6.969,4.937-24.396,7.55-32.236C49.061,243.797,57.773,218.821,71.132,188.616z"/>
	<path d="M69.971,368.1c-4.937-13.068-5.518-28.461-6.099-35.432c-0.581-6.969,0.29-22.652,2.613-35.143
		c2.323-12.487,6.39-26.427,10.746-36.883c4.356-10.455,11.037-20.329,15.103-25.267c4.065-4.937,8.422-9.293,13.36-13.359
		c-4.357,14.811-6.099,23.815-6.971,32.818c-0.871,9.003-1.403,26.394-0.58,35.723c0.871,9.873,3.357,24.916,6.97,34.85
		c3.485,9.586,7.551,20.332,11.037,27.592c3.485,7.262,10.455,20.039,16.845,29.334c-17.135-11.908-19.168-13.068-24.105-16.846
		c-4.938-3.775-14.521-11.035-17.426-12.488s-6.68-2.904-8.713-2.322c-2.033,0.58-6.099,4.646-7.261,6.969
		C74.328,359.969,69.971,368.1,69.971,368.1z"/>
	<path d="M182.948,116.299c-14.231,0.872-20.911,2.614-27.591,4.938s-18.587,6.39-26.719,10.746
		c-8.132,4.356-14.521,7.842-23.815,15.683c-5.809,12.488-14.522,33.399-18.007,42.112c16.555-10.166,22.653-11.617,28.752-13.36
		c6.099-1.742,17.716-4.937,27.301-5.228c-7.551,13.36-9.875,21.202-12.489,27.591c-2.614,6.39-4.937,13.36-6.97,22.363
		c-2.034,9.003-4.066,25.558-3.775,36.013c0.29,10.456,2.614,28.753,7.261,42.984c-0.291-26.718,3.775-43.564,5.227-49.954
		c1.453-6.39,7.551-21.782,11.617-29.043c4.066-7.26,16.845-28.171,18.587-29.914c1.161,16.264,4.647,25.268,7.551,33.689
		c2.904,8.423,15.102,35.723,32.238,54.892c17.135,19.167,38.479,39.015,53.148,58.957c18.586,25.268,29.042,47.92,31.366,60.699
		c2.322,12.779,3.195,17.717,2.032,28.463c10.456-17.717,18.297-46.178,18.878-69.703c0.582-23.525-6.97-48.211-15.103-63.604
		c-8.132-15.394-16.845-27.3-23.524-37.756s-10.745-17.135-13.94-24.105c2.032,20.62,5.228,32.238,6.39,37.465
		c1.161,5.228,3.485,13.36,4.938,22.944c-10.747-20.04-24.977-33.398-32.819-40.95s-32.237-24.396-42.402-35.723
		c-10.165-11.327-18.288-22.937-18.006-40.66c0.29-18.297,5.228-29.334,9.294-39.789c-15.393-0.291-38.627,4.647-54.892,13.069
		c16.555-13.94,20.367-16.206,27.01-20.33C161.554,124.401,169.007,120.366,182.948,116.299z"/>
	<path d="M161.456,245.25c-4.066,7.842-11.037,31.946-13.069,44.436c-2.034,12.488-2.764,38.305,0.871,55.182
		c4.066,18.877,11.617,36.014,27.59,55.762c19.749,13.068,54.02,40.951,59.828,48.791c-3.775-22.652-12.459-33.881-15.683-38.916
		c-4.647-7.262-21.202-24.688-26.719-36.594c-5.518-11.908-10.456-28.463-10.165-37.758c13.069,12.197,16.845,13.65,23.524,18.008
		c6.68,4.355,15.393,8.422,24.106,12.777c7.443,3.723,12.779,6.682,17.715,10.457c-3.775-9.875-12.779-18.588-18.877-24.396
		c-6.142-5.85-24.105-19.748-35.141-34.561C184.4,303.625,167.555,278.069,161.456,245.25z"/>
</g>
</svg>
