<?xml version="1.0" encoding="utf-8"?>
<!-- Generator: Adobe Illustrator 16.0.4, SVG Export Plug-In . SVG Version: 6.00 Build 0)  -->
<!DOCTYPE svg PUBLIC "-//W3C//DTD SVG 1.1//EN" "http://www.w3.org/Graphics/SVG/1.1/DTD/svg11.dtd">
<svg version="1.1" id="Layer_2" xmlns="http://www.w3.org/2000/svg" xmlns:xlink="http://www.w3.org/1999/xlink" x="0px" y="0px"
	 width="533px" height="265.384px" viewBox="0 188.616 533 265.384" enable-background="new 0 188.616 533 265.384"
	 xml:space="preserve">
<g opacity="0.05">
	<path d="M387.989,347.77c3.29,2.904,8.704,6.17,14.328,10.068c5.931,4.113,13.624,9.368,19.942,13.941
		c9.149,6.623,17.425,12.972,17.425,12.972s-2.13-10.067-0.193-14.327c3.297-7.252,12.974-11.619,17.039-13.359
		c5.422,3.873,14.037,10.939,23.621,20.523c5.509,5.508,15.438,16.209,19.942,22.168c7.945,10.512,12.198,18.491,12.198,18.491
		s-5.422-0.775-9.294,0.387c-3.873,1.162-13.942,3.873-17.038,5.422c-3.099,1.549-5.809,4.646-1.936,7.744
		c3.87,3.099,9.681,7.358,12.004,8.906c2.322,1.549,6.583,2.323,6.583,2.323s-5.101,5.737-9.294,9.681
		c-4.842,4.551-13.167,8.52-17.813,10.455c-4.646,1.938-18.973,4.26-25.169,4.646c-6.198,0.389-18.151,0.41-25.173,2.324
		c-8.52,2.322-13.357,7.455-16.069,15.295c2.938,1.889,13.36,8.713,13.36,8.713s4.198-4.209,6.133-6.531
		c1.938-2.324,6.064-5.859,9.162-7.021c3.098-1.16,9.875-3.291,17.62-2.904c8.37,0.419,13.741,0.96,17.039,6.003
		c3.291,5.032,6.389,13.94,6.389,20.524c0,6.582,0.967,13.164-4.065,34.076c7.163-9.682,10.454-13.94,13.166-27.881
		c2.711-13.941,1.936-24.785-1.937-34.078c7.357-5.422,8.905-6.972,14.715-13.167c5.809-6.194,23.622-31.753,26.332-35.237
		c2.711-3.485,3.871-6.194,0.774-12.004c-3.098-5.809-20.523-27.107-30.592-37.175c-10.069-10.068-28.432-25.295-37.95-31.365
		c-11.229-7.164-23.037-11.856-38.529-11.617c-12.586,0.193-17.909,2.129-23.718,5.615
		C391.184,344.866,387.989,347.77,387.989,347.77z"/>
	<path d="M365.628,506.345c14.812,3.193,32.696,6.736,44.726,10.746c13.939,4.646,35.59,13.603,41.821,16.845
		c7.26,3.774,19.458,11.325,19.458,11.325c-1.162-13.647-26.139-34.27-42.982-38.916
		C414.304,502.386,393.798,497.921,365.628,506.345z"/>
	<path d="M311.605,488.046c9.586,10.457,25.85,22.945,35.434,30.496c9.585,7.551,23.525,18.006,30.205,22.652
		c6.681,4.647,25.558,17.428,25.558,17.428c-16.846-2.324-29.043-5.811-36.885-8.715c-7.841-2.902-15.683-6.098-20.329-9.002
		s-10.746-6.68-10.746-6.68s-0.291,7.551-1.451,15.102c-1.162,7.553-3.486,16.846-5.229,22.363
		c-1.743,5.517-4.938,13.649-7.552,19.459c1.744-17.135,1.453-41.822,1.162-51.406c-0.205-6.732-3.195-24.104-4.065-28.752
		C316.834,506.345,311.605,488.046,311.605,488.046z"/>
	<path d="M331.938,368.391c3.484,6.971,11.035,15.394,15.684,20.041c4.646,4.646,13.65,10.746,19.749,16.845
		c6.1,6.099,11.551,11.018,15.394,15.683c4.065,4.938,8.422,13.94,8.422,13.94c1.162-10.456-2.903-20.33-5.809-26.72
		c-2.904-6.389-11.617-16.555-18.296-20.33c-6.681-3.775-16.556-8.713-20.913-11.326
		C341.812,373.908,331.938,368.391,331.938,368.391z"/>
	<path d="M357.38,279.389c2.079-4.01,5.177-8.76,9.7-13.324c5.371-5.422,12.391-10.068,19.748-12.779
		c7.357-2.71,19.168-4.841,25.558-5.131c-3.484,3.195-9.825,8.822-13.649,12.779c-4.211,4.355-8.422,10.166-8.422,10.166
		c7.744-2.711,18.006-3.776,23.96-3.485c5.471,0.267,15.198,0.919,24.104,3.63c-6.824,1.452-18.668,4.779-24.251,6.682
		c-6.825,2.322-17.619,7.89-17.619,7.89c6.196,4.646,11.229,9.39,14.715,13.552c1.88,2.246,4.933,5.947,7.842,10.359
		c2.487,3.769,3.632,5.809,5.374,8.857c-7.019-6.051-19.164-14.314-32.576-21.927c-14.329-8.132-24.01-12.392-34.596-16.892
		L357.38,279.389z"/>
	<path d="M342.684,258.706c0,0,4.113-7.569,6.534-10.987c2.468-3.485,8.544-9.688,13.796-14.086
		c5.372-4.502,14.812-11.473,24.541-17.426c0,0-13.94,1.452-21.248,3.001c-6.617,1.402-17.523,4.259-25.947,8.519
		c-8.498,4.3-20.135,13.554-20.135,13.554s-6.435-12.063-10.36-18.103c-5.034-7.745-16.36-21.007-26.815-27.203
		c3.383,9.3,11.52,26.961,12.294,34.318c0,0-11.235-11.013-23.813-20.185c-13.941-10.164-28.366-16.456-43.856-21.491
		c0,0,19.601,15.708,27.155,22.508c7.261,6.535,14.667,14.765,21.637,22.509c6.838,7.596,12.393,13.457,19.363,23.911
		c-7.357-5.421-16.266-8.52-24.396-9.681c-6.239-0.893-11.666-1.307-18.975-0.773c-2.134,0.154-4.415,0.701-6.615,1.412
		c-3.154-5.248-8.674-13.695-14.683-19.517c-6.196-6.001-24.009-17.136-24.009-17.136c9.487,0.291,18.278,0.841,25.17,2.711
		c12.488,3.388,18.297,5.711,27.881,10.068c-9.002-10.165-31.366-27.01-64.668-29.817c-10.812-0.911-24.062,0.556-35.626,3.486
		c-21.396,5.421-47.63,18.975-47.63,18.975c27.106-5.132,59.925-5.422,84.03,5.034c11.942,5.18,25.558,14.327,31.366,20.911
		c2.824,3.201,5.735,6.854,7.985,9.769c-5.34,3-11.495,10.021-14.18,14.241c-2.711,4.26-5.035,10.455-5.422,18.199
		c0,0-9.293-4.259-13.166-5.422c-3.872-1.162-12.004-2.518-21.298-2.904c-9.293-0.387-18.139,2.06-26.912,4.841
		c-7.939,2.517-14.328,7.164-20.718,12.778c0,0,10.649-3.291,14.909-4.065c4.259-0.774,12.778-2.323,20.91-1.55
		c8.132,0.774,16.07,2.904,23.815,5.615c7.746,2.711,15.296,7.164,19.75,10.068c0,0-3.679,11.036-4.646,16.651
		c-0.967,5.614,1.549,14.134,4.259,20.522c0.969-3.873,2.905-10.938,4.841-14.812s2.13-5.324,7.164-11.134
		c0,0-3.098,17.812-3.098,22.074c0,4.258,0,12.391,1.549,20.91c0,0,7.552,7.745,15.489,12.779
		c-1.161-4.453-1.355-6.196-2.517-10.844c-1.162-4.646-2.53-13.308-2.711-18.781c-0.193-5.809,0.195-12.584,0.195-12.584
		s4.84,7.938,9.293,12.777c0,0-1.936-12.004-3.485-17.812c-1.549-5.809-3.872-13.553-5.808-22.072
		c-1.937-8.52-3.204-23.94,7.163-35.724c12.779-14.521,38.918-8.422,51.31-1.063c6.113,3.629,10.454,7.744,14.716,10.067
		c4.26,2.323,19.07,7.841,19.07,7.841s-4.744-9.39-11.328-16.748c8.547,1.379,24.158,6.094,38.312,11.35l0.117-0.375
		c2.705-8.328,10.752-21.041,10.752-21.041c2.711-4.26,8.519-10.844,17.812-19.75c-7.354,1.937-16.265,6.195-21.687,9.294
		C354.688,249.413,349.652,252.898,342.684,258.706z"/>
	<path d="M243.55,356.29c3.099,8.132,13.941,27.106,13.941,27.106c13.165,8.519,26.815,14.037,37.562,23.621
		c13.823,12.329,24.783,30.594,24.783,30.594c-2.322-14.716-3.484-22.848-8.131-32.529c-4.646-9.681-13.168-19.75-17.814-25.945
		c-4.646-6.195-13.553-17.426-16.264-22.072c-2.711-4.647-6.195-15.102-6.195-15.102c-1.549,6.969,0.387,20.91,3.098,31.752
		C268.914,368.682,243.55,356.29,243.55,356.29z"/>
	<g>
		<path d="M257.491,278.262c3.678-0.773,7.357-1.162,13.358-1.355c2.854-0.093,5.748-0.141,8.002-0.166
			c-2.697-1.98-6.125-3.963-9.744-5.255c-5.421-1.937-10.503-0.823-13.843,1.646c-2.269,1.676-4.18,4.142-5.106,6.909
			C252.483,279.377,255.321,278.719,257.491,278.262z"/>
		<path d="M259.427,290.846c2.324-0.773,13.554-1.547,18.589-1.547s12.392,1.547,20.521,2.323c-0.934-0.78-3.316-2.44-6.003-4.321
			c-4.937-1.149-10.548-2.24-14.521-2.648c-4.498-0.465-12.778-1.162-18.975-0.581c-3.492,0.327-6.884,1.082-10.025,1.948
			c-0.157,2.283-0.023,4.475,0.343,6.184c1.162,5.421,3.852,8.305,7.358,11.811c3.679,3.679,6.583,5.422,13.166,9.295
			c6.582,3.871,12.004,5.42,19.361,10.455c0,0,5.229-7.358,2.033-20.137C279.079,296.946,268.721,293.557,259.427,290.846z"/>
	</g>
	<path d="M214.314,262.676c-4.066-10.455-12.779-16.846-18.587-20.912c-3.902-2.73-16.555-8.422-28.171-9.873
		c-10.985-1.373-31.076-0.291-44.726,3.194s-36.884,12.488-49.954,20.91c-13.069,8.422-27.009,21.202-36.593,30.786
		c15.682-10.165,22.942-14.23,30.494-17.717c7.551-3.484,27.01-12.197,45.307-15.682c-20.331,9.584-32.237,20.039-39.498,25.268
		c-7.261,5.227-30.495,28.461-38.917,39.788c-8.423,11.327-17.135,23.814-23.234,35.433c12.198-6.39,22.073-12.779,27.01-15.104
		c4.937-2.322,11.327-6.099,22.073-11.035c-14.521,20.04-21.783,33.109-27.591,41.82c-5.809,8.713-18.297,30.787-24.106,42.983
		c23.437-29.742,53.699-61.683,61.542-70.104c5.458-5.861,44.032-46.854,60.438-58.555c-11.326,2.385-30.233,8.747-40.398,13.395
		c-11.238,5.137-23.145,12.137-31.627,17.392c14.231-18.587,24.396-24.978,30.495-29.624s19.458-13.648,33.689-18.877
		s29.914-8.423,40.66-9.003c10.746-0.581,18.007-1.163,27.881-0.291C200.373,257.738,214.314,262.676,214.314,262.676z"/>
	<path d="M71.132,376.232c-7.841,4.355-25.616,18.257-32.818,24.686C30.183,408.18,9.562,428.8,2.301,440.707
		c14.231-10.745,25.848-17.136,35.432-21.491c-8.131,13.068-11.617,22.362-13.649,27.879c-2.034,5.521-5.228,19.459-5.228,19.459
		c4.646,9.295,7.26,11.91,9.293,15.976c2.033,4.063,7.551,11.906,11.617,18.295c-2.614-15.685-1.296-25.938-0.871-29.333
		c0.871-6.969,4.937-24.396,7.55-32.236C49.061,431.413,57.773,406.438,71.132,376.232z"/>
	<path d="M69.971,555.716c-4.937-13.067-5.518-28.461-6.099-35.432c-0.581-6.969,0.29-22.652,2.613-35.143
		c2.323-12.487,6.39-26.428,10.746-36.883s11.037-20.33,15.103-25.268c4.065-4.938,8.422-9.293,13.36-13.358
		c-4.357,14.811-6.099,23.814-6.971,32.817c-0.871,9.003-1.403,26.395-0.58,35.723c0.871,9.873,3.357,24.916,6.97,34.851
		c3.485,9.586,7.551,20.332,11.037,27.592c3.485,7.262,10.455,20.039,16.845,29.334c-17.135-11.908-19.168-13.068-24.105-16.846
		c-4.938-3.775-14.521-11.035-17.426-12.488c-2.905-1.453-6.68-2.904-8.713-2.322c-2.033,0.58-6.099,4.646-7.261,6.97
		C74.328,547.585,69.971,555.716,69.971,555.716z"/>
	<path d="M182.948,303.915c-14.231,0.872-20.911,2.614-27.591,4.938s-18.587,6.39-26.719,10.746
		c-8.132,4.355-14.521,7.842-23.815,15.683c-5.809,12.487-14.522,33.399-18.007,42.112c16.555-10.166,22.653-11.617,28.752-13.36
		c6.099-1.742,17.716-4.937,27.301-5.228c-7.551,13.359-9.875,21.201-12.489,27.591c-2.614,6.39-4.937,13.36-6.97,22.362
		c-2.034,9.003-4.066,25.559-3.775,36.014c0.29,10.456,2.614,28.753,7.261,42.983c-0.291-26.718,3.775-43.563,5.227-49.953
		c1.453-6.391,7.551-21.782,11.617-29.044c4.066-7.26,16.845-28.17,18.587-29.914c1.161,16.265,4.647,25.269,7.551,33.689
		c2.904,8.423,15.102,35.724,32.238,54.892c17.135,19.168,38.479,39.016,53.148,58.957c18.585,25.269,29.042,47.921,31.366,60.699
		c2.322,12.779,3.195,17.717,2.032,28.463c10.456-17.717,18.297-46.178,18.878-69.703c0.582-23.524-6.97-48.211-15.103-63.604
		c-8.133-15.395-16.846-27.3-23.524-37.756c-6.679-10.456-10.745-17.135-13.94-24.105c2.032,20.62,5.228,32.238,6.39,37.465
		c1.161,5.229,3.485,13.36,4.938,22.944c-10.747-20.04-24.977-33.397-32.819-40.95c-7.842-7.552-32.237-24.396-42.402-35.723
		s-18.288-22.937-18.006-40.66c0.29-18.297,5.228-29.334,9.294-39.789c-15.393-0.291-38.627,4.647-54.892,13.069
		c16.555-13.939,20.367-16.206,27.01-20.33C161.554,312.018,169.007,307.982,182.948,303.915z"/>
	<path d="M161.456,432.866c-4.066,7.842-11.037,31.945-13.069,44.436c-2.034,12.488-2.764,38.306,0.871,55.183
		c4.066,18.877,11.617,36.014,27.59,55.762c19.749,13.068,54.02,40.951,59.828,48.791c-3.775-22.652-12.459-33.881-15.683-38.916
		c-4.647-7.262-21.202-24.688-26.719-36.594c-5.518-11.908-10.456-28.463-10.165-37.758c13.069,12.196,16.845,13.649,23.524,18.008
		c6.68,4.354,15.393,8.422,24.106,12.777c7.443,3.723,12.779,6.682,17.715,10.456c-3.775-9.875-12.779-18.588-18.877-24.396
		c-6.142-5.85-24.105-19.748-35.141-34.561C184.4,491.241,167.555,465.685,161.456,432.866z"/>
</g>
</svg>
