<?xml version="1.0" encoding="utf-8"?>
<!-- Generator: Adobe Illustrator 16.0.4, SVG Export Plug-In . SVG Version: 6.00 Build 0)  -->
<!DOCTYPE svg PUBLIC "-//W3C//DTD SVG 1.1//EN" "http://www.w3.org/Graphics/SVG/1.1/DTD/svg11.dtd">
<svg version="1.1" id="Layer_1" xmlns="http://www.w3.org/2000/svg" xmlns:xlink="http://www.w3.org/1999/xlink" x="0px" y="0px"
	 width="144px" height="144px" viewBox="0 0 144 144" enable-background="new 0 0 144 144" xml:space="preserve">
<path display="none" fill="#D4AF34" d="M92.17,107.156c0,10.773-8.899,19.672-19.672,19.672s-19.672-8.898-19.672-19.672
	s8.899-19.672,19.672-19.672S92.17,96.383,92.17,107.156z M56.66,18.847l5.533,60.987h20.765l5.505-60.666
	C83.26,17.543,77.73,16.667,72,16.667C66.678,16.667,61.535,17.438,56.66,18.847z"/>
<g display="none">
	<path display="inline" d="M72,8.667C37.078,8.667,8.667,37.078,8.667,72S37.078,135.333,72,135.333S135.333,106.922,135.333,72
		S106.922,8.667,72,8.667z M72,133.333c-33.819,0-61.333-27.514-61.333-61.333S38.181,10.667,72,10.667S133.333,38.181,133.333,72
		S105.819,133.333,72,133.333z"/>
	<path display="inline" fill="#D4AF34" d="M72,8.667C37.078,8.667,8.667,37.078,8.667,72S37.078,135.333,72,135.333
		S135.333,106.922,135.333,72S106.922,8.667,72,8.667z M72,133.333c-33.819,0-61.333-27.514-61.333-61.333S38.181,10.667,72,10.667
		S133.333,38.181,133.333,72S105.819,133.333,72,133.333z"/>
</g>
<g>
	<path fill="#D4AF34" d="M105.259,54.86c0.889,0.785,2.351,1.667,3.87,2.72c1.603,1.111,3.681,2.531,5.388,3.766
		c2.472,1.79,4.707,3.504,4.707,3.504s-0.576-2.72-0.053-3.87c0.891-1.959,3.504-3.138,4.603-3.609
		c1.465,1.046,3.792,2.955,6.381,5.544c1.488,1.488,4.171,4.379,5.389,5.989c2.145,2.839,3.294,4.995,3.294,4.995
		s-1.465-0.21-2.511,0.104s-3.767,1.046-4.603,1.466c-0.837,0.419-1.568,1.255-0.522,2.092s2.614,1.987,3.242,2.405
		c0.628,0.419,1.778,0.628,1.778,0.628s-1.377,1.549-2.511,2.615c-1.308,1.228-3.557,2.301-4.812,2.824
		c-1.256,0.523-5.126,1.15-6.799,1.255c-1.674,0.105-4.903,0.11-6.801,0.628c-2.301,0.628-3.608,2.014-4.341,4.131
		c0.793,0.511,3.608,2.354,3.608,2.354s1.135-1.137,1.658-1.764c0.522-0.629,1.638-1.584,2.474-1.896
		c0.837-0.314,2.669-0.89,4.761-0.785c2.261,0.112,3.712,0.259,4.603,1.621c0.889,1.36,1.725,3.766,1.725,5.544
		s0.263,3.557-1.098,9.205c1.935-2.614,2.825-3.766,3.558-7.531c0.731-3.767,0.522-6.695-0.523-9.205
		c1.987-1.465,2.406-1.883,3.975-3.557c1.569-1.674,6.381-8.577,7.113-9.519s1.046-1.674,0.209-3.244
		c-0.836-1.568-5.543-7.321-8.264-10.042c-2.72-2.719-7.681-6.833-10.25-8.473c-3.034-1.935-6.224-3.203-10.409-3.138
		c-3.4,0.053-4.838,0.575-6.406,1.517C106.12,54.075,105.259,54.86,105.259,54.86z"/>
	<path fill="#D4AF34" d="M99.217,97.696c4.002,0.862,8.833,1.818,12.082,2.901c3.766,1.256,9.614,3.677,11.298,4.552
		c1.962,1.02,5.257,3.059,5.257,3.059c-0.313-3.688-7.062-9.256-11.611-10.512C112.366,96.627,106.827,95.421,99.217,97.696z"/>
	<path fill="#D4AF34" d="M84.625,92.753c2.589,2.824,6.981,6.199,9.571,8.238c2.589,2.039,6.354,4.864,8.159,6.119
		s6.904,4.707,6.904,4.707c-4.551-0.628-7.846-1.569-9.964-2.354c-2.118-0.783-4.237-1.646-5.492-2.432
		c-1.256-0.783-2.901-1.804-2.901-1.804s-0.079,2.039-0.394,4.079c-0.313,2.039-0.941,4.552-1.412,6.042s-1.333,3.686-2.039,5.256
		c0.47-4.629,0.392-11.298,0.313-13.887c-0.057-1.818-0.863-6.512-1.099-7.766C86.037,97.696,84.625,92.753,84.625,92.753z"/>
	<path fill="#D4AF34" d="M90.116,60.43c0.941,1.883,2.981,4.158,4.237,5.413c1.255,1.256,3.688,2.903,5.335,4.551
		c1.647,1.647,3.12,2.977,4.158,4.236c1.098,1.334,2.273,3.767,2.273,3.767c0.315-2.824-0.783-5.492-1.568-7.218
		c-0.784-1.726-3.138-4.472-4.942-5.491c-1.804-1.021-4.472-2.354-5.648-3.06C92.785,61.92,90.116,60.43,90.116,60.43z"/>
	<path fill="#D4AF34" d="M96.99,36.387c0.561-1.083,1.397-2.367,2.619-3.599c1.451-1.465,3.348-2.72,5.335-3.452
		c1.987-0.731,5.179-1.307,6.903-1.386c-0.941,0.863-2.652,2.383-3.687,3.452c-1.138,1.177-2.275,2.746-2.275,2.746
		c2.092-0.732,4.864-1.02,6.473-0.941c1.478,0.072,4.106,0.249,6.512,0.981c-1.844,0.392-5.043,1.291-6.551,1.804
		c-1.844,0.628-4.76,2.132-4.76,2.132c1.674,1.255,3.033,2.536,3.976,3.661c0.507,0.607,1.332,1.607,2.118,2.799
		c0.672,1.018,0.98,1.569,1.452,2.393c-1.897-1.634-5.178-3.867-8.801-5.923c-3.87-2.197-6.486-3.348-9.345-4.563L96.99,36.387z"/>
	<path fill="#D4AF34" d="M93.02,30.8c0,0,1.112-2.045,1.765-2.968c0.667-0.942,2.309-2.617,3.729-3.805
		c1.449-1.216,4-3.1,6.628-4.708c0,0-3.766,0.392-5.739,0.811c-1.787,0.379-4.733,1.151-7.009,2.302
		c-2.297,1.162-5.439,3.661-5.439,3.661s-1.739-3.259-2.799-4.89c-1.359-2.092-4.419-5.675-7.244-7.349
		c0.914,2.512,3.111,7.283,3.32,9.271c0,0-3.035-2.975-6.432-5.453c-3.767-2.746-7.663-4.446-11.847-5.805
		c0,0,5.295,4.243,7.335,6.08c1.961,1.765,3.962,3.988,5.845,6.081c1.847,2.052,3.349,3.635,5.231,6.459
		c-1.987-1.465-4.395-2.302-6.592-2.615c-1.686-0.241-3.151-0.353-5.125-0.209c-0.577,0.042-1.193,0.189-1.788,0.381
		c-0.852-1.417-2.343-3.7-3.966-5.272c-1.674-1.621-6.486-4.629-6.486-4.629c2.563,0.079,4.938,0.227,6.8,0.732
		c3.374,0.916,4.943,1.543,7.531,2.719c-2.432-2.745-8.473-7.296-17.469-8.054c-2.92-0.247-6.5,0.149-9.624,0.941
		c-5.78,1.464-12.866,5.125-12.866,5.125c7.322-1.385,16.188-1.464,22.699,1.36c3.227,1.4,6.904,3.87,8.473,5.649
		c0.763,0.864,1.549,1.851,2.157,2.639c-1.442,0.81-3.105,2.707-3.831,3.847c-0.732,1.15-1.359,2.824-1.464,4.917
		c0,0-2.511-1.151-3.557-1.465s-3.242-0.68-5.753-0.785s-4.899,0.557-7.271,1.308c-2.144,0.68-3.87,1.935-5.596,3.452
		c0,0,2.876-0.889,4.027-1.098s3.452-0.628,5.648-0.418c2.197,0.209,4.342,0.784,6.434,1.517c2.092,0.732,4.132,1.935,5.335,2.72
		c0,0-0.994,2.981-1.255,4.498c-0.261,1.517,0.418,3.818,1.15,5.544c0.261-1.046,0.784-2.956,1.308-4.001
		c0.523-1.046,0.575-1.438,1.935-3.007c0,0-0.837,4.812-0.837,5.963c0,1.151,0,3.348,0.418,5.648c0,0,2.04,2.092,4.184,3.452
		c-0.313-1.203-0.366-1.673-0.68-2.929c-0.313-1.255-0.683-3.595-0.732-5.074c-0.052-1.569,0.053-3.399,0.053-3.399
		s1.307,2.145,2.51,3.452c0,0-0.523-3.243-0.941-4.812c-0.418-1.569-1.046-3.662-1.569-5.963c-0.523-2.301-0.866-6.467,1.935-9.65
		c3.452-3.922,10.513-2.275,13.861-0.288c1.65,0.98,2.824,2.092,3.975,2.72s5.151,2.119,5.151,2.119s-1.281-2.537-3.061-4.524
		c2.31,0.373,6.525,1.646,10.351,3.066l0.031-0.101c0.73-2.251,2.904-5.685,2.904-5.685c0.732-1.151,2.301-2.929,4.811-5.335
		c-1.987,0.523-4.393,1.674-5.857,2.511C96.263,28.29,94.902,29.231,93.02,30.8z"/>
	<path fill="#D4AF34" d="M66.24,57.161c0.837,2.196,3.766,7.322,3.766,7.322c3.556,2.302,7.244,3.792,10.147,6.381
		c3.733,3.33,6.694,8.264,6.694,8.264c-0.627-3.976-0.941-6.17-2.196-8.787c-1.255-2.615-3.557-5.335-4.812-7.009
		c-1.256-1.673-3.662-4.707-4.396-5.962c-0.731-1.255-1.673-4.08-1.673-4.08c-0.418,1.883,0.104,5.648,0.837,8.577
		C73.093,60.508,66.24,57.161,66.24,57.161z"/>
	<g>
		<path fill="#D4AF34" d="M70.006,36.083c0.994-0.209,1.988-0.314,3.609-0.366c0.771-0.025,1.553-0.038,2.162-0.045
			c-0.729-0.535-1.655-1.07-2.633-1.42c-1.464-0.523-2.837-0.222-3.74,0.445c-0.613,0.453-1.129,1.119-1.379,1.867
			C68.653,36.385,69.42,36.207,70.006,36.083z"/>
		<path fill="#D4AF34" d="M70.529,39.482c0.628-0.209,3.661-0.418,5.021-0.418s3.349,0.418,5.545,0.627
			c-0.253-0.21-0.897-0.659-1.623-1.167c-1.333-0.311-2.848-0.605-3.922-0.716c-1.214-0.125-3.451-0.314-5.125-0.157
			c-0.943,0.089-1.86,0.292-2.708,0.526c-0.042,0.617-0.006,1.209,0.092,1.67c0.315,1.464,1.041,2.243,1.988,3.191
			c0.994,0.994,1.779,1.464,3.557,2.51c1.778,1.046,3.242,1.465,5.23,2.825c0,0,1.412-1.988,0.549-5.44
			C75.838,41.13,73.039,40.214,70.529,39.482z"/>
	</g>
	<path fill="#D4AF34" d="M58.343,31.873c-1.099-2.824-3.452-4.55-5.021-5.649c-1.054-0.738-4.472-2.275-7.61-2.667
		c-2.967-0.371-8.395-0.079-12.082,0.863c-3.688,0.941-9.964,3.374-13.494,5.649c-3.531,2.275-7.297,5.727-9.886,8.316
		c4.237-2.747,6.198-3.844,8.238-4.786c2.04-0.942,7.296-3.295,12.239-4.237c-5.492,2.589-8.708,5.414-10.67,6.826
		c-1.961,1.413-8.238,7.688-10.513,10.748c-2.275,3.06-4.628,6.433-6.276,9.572c3.295-1.727,5.962-3.452,7.297-4.08
		c1.333-0.627,3.059-1.647,5.962-2.981c-3.923,5.414-5.884,8.944-7.454,11.297c-1.569,2.354-4.942,8.316-6.511,11.611
		c6.331-8.035,14.506-16.662,16.624-18.938C20.661,51.833,31.08,40.76,35.513,37.6c-3.06,0.644-8.167,2.362-10.913,3.617
		c-3.035,1.388-6.252,3.279-8.543,4.698c3.844-5.021,6.59-6.747,8.237-8.002c1.648-1.255,5.257-3.688,9.101-5.1
		c3.844-1.412,8.081-2.275,10.983-2.432c2.903-0.157,4.864-0.314,7.532-0.079C54.577,30.539,58.343,31.873,58.343,31.873z"/>
	<path fill="#D4AF34" d="M19.665,62.548c-2.118,1.176-6.92,4.932-8.865,6.668c-2.197,1.962-7.767,7.532-9.729,10.749
		c3.844-2.902,6.982-4.629,9.571-5.806c-2.197,3.53-3.138,6.042-3.687,7.532c-0.55,1.49-1.412,5.257-1.412,5.257
		c1.255,2.511,1.961,3.215,2.51,4.314c0.549,1.098,2.04,3.216,3.138,4.942c-0.706-4.236-0.35-7.007-0.235-7.925
		c0.235-1.883,1.333-6.589,2.04-8.708C13.702,77.455,16.056,70.708,19.665,62.548z"/>
	<path fill="#D4AF34" d="M19.351,111.032c-1.333-3.53-1.49-7.688-1.647-9.57c-0.156-1.883,0.079-6.12,0.706-9.493
		c0.628-3.374,1.727-7.14,2.903-9.965c1.177-2.824,2.981-5.49,4.08-6.824c1.099-1.334,2.275-2.511,3.609-3.609
		c-1.177,4.002-1.647,6.434-1.883,8.865s-0.379,7.13-0.157,9.65c0.235,2.667,0.907,6.729,1.883,9.415
		c0.942,2.588,2.04,5.491,2.981,7.452s2.825,5.414,4.55,7.924c-4.629-3.217-5.178-3.531-6.512-4.55
		c-1.333-1.021-3.922-2.981-4.708-3.374c-0.784-0.393-1.804-0.784-2.353-0.628c-0.55,0.157-1.648,1.256-1.961,1.883
		C20.528,108.836,19.351,111.032,19.351,111.032z"/>
	<path fill="#D4AF34" d="M49.87,43.013c-3.844,0.235-5.649,0.706-7.453,1.333c-1.804,0.627-5.021,1.726-7.218,2.903
		c-2.196,1.177-3.922,2.119-6.433,4.236c-1.569,3.374-3.923,9.022-4.864,11.376c4.472-2.746,6.12-3.138,7.768-3.609
		c1.646-0.471,4.785-1.333,7.374-1.412c-2.04,3.609-2.667,5.728-3.374,7.453c-0.706,1.726-1.333,3.609-1.883,6.041
		c-0.549,2.432-1.098,6.903-1.02,9.728c0.079,2.825,0.706,7.769,1.961,11.612c-0.078-7.219,1.021-11.768,1.413-13.495
		c0.393-1.725,2.04-5.883,3.138-7.845c1.099-1.961,4.551-7.61,5.021-8.081c0.314,4.394,1.255,6.826,2.04,9.101
		c0.785,2.275,4.08,9.649,8.708,14.828c4.629,5.178,10.394,10.54,14.357,15.926c5.021,6.826,7.845,12.945,8.474,16.397
		c0.627,3.453,0.861,4.786,0.549,7.688c2.824-4.785,4.941-12.474,5.099-18.828s-1.883-13.023-4.079-17.182
		c-2.197-4.158-4.551-7.375-6.354-10.199c-1.805-2.824-2.903-4.628-3.767-6.511c0.549,5.569,1.412,8.708,1.727,10.12
		c0.313,1.413,0.941,3.609,1.333,6.198c-2.902-5.413-6.747-9.022-8.865-11.062c-2.118-2.04-8.708-6.59-11.454-9.649
		c-2.747-3.06-4.94-6.196-4.865-10.984c0.079-4.942,1.413-7.924,2.511-10.749c-4.158-0.078-10.435,1.256-14.828,3.531
		c4.472-3.766,5.502-4.377,7.296-5.492C44.091,45.202,46.104,44.112,49.87,43.013z"/>
	<path fill="#D4AF34" d="M44.064,77.847c-1.098,2.118-2.981,8.631-3.53,12.004c-0.55,3.374-0.747,10.349,0.235,14.906
		c1.098,5.099,3.138,9.729,7.453,15.063c5.335,3.53,14.592,11.062,16.162,13.18c-1.02-6.119-3.366-9.152-4.236-10.513
		c-1.255-1.961-5.728-6.669-7.218-9.886c-1.49-3.216-2.824-7.688-2.745-10.198c3.529,3.295,4.55,3.687,6.354,4.863
		c1.805,1.178,4.159,2.275,6.512,3.452c2.011,1.005,3.452,1.805,4.786,2.824c-1.02-2.667-3.452-5.021-5.1-6.59
		c-1.66-1.581-6.512-5.335-9.493-9.336C50.262,93.615,45.711,86.712,44.064,77.847z"/>
</g>
</svg>
