<?xml version="1.0" encoding="utf-8"?>
<!-- Generator: Adobe Illustrator 16.0.4, SVG Export Plug-In . SVG Version: 6.00 Build 0)  -->
<!DOCTYPE svg PUBLIC "-//W3C//DTD SVG 1.1//EN" "http://www.w3.org/Graphics/SVG/1.1/DTD/svg11.dtd">
<svg version="1.1" id="Layer_1" xmlns="http://www.w3.org/2000/svg" xmlns:xlink="http://www.w3.org/1999/xlink" x="0px" y="0px"
	 width="144px" height="144px" viewBox="0 0 144 144" enable-background="new 0 0 144 144" xml:space="preserve">
<g display="none">
	<rect y="0" display="inline" width="144" height="144"/>
	<circle display="inline" fill="#FFFFFF" cx="72" cy="72" r="69.333"/>
	<text transform="matrix(1 0 0 1 47.3608 124.1738)" display="inline" font-family="'LuloCleanOne-Bold'" font-size="156.1263">!</text>
	<g display="inline">
		<path fill="#FFFFFF" d="M72,16.667c30.511,0,55.333,24.822,55.333,55.333S102.511,127.333,72,127.333S16.667,102.511,16.667,72
			S41.489,16.667,72,16.667 M72,2.667C33.708,2.667,2.667,33.708,2.667,72c0,38.292,31.042,69.333,69.333,69.333
			c38.292,0,69.333-31.041,69.333-69.333C141.333,33.708,110.292,2.667,72,2.667L72,2.667z"/>
		<path d="M72,10.667c33.819,0,61.333,27.514,61.333,61.333S105.819,133.333,72,133.333S10.667,105.819,10.667,72
			S38.181,10.667,72,10.667 M72,2.667C33.708,2.667,2.667,33.708,2.667,72c0,38.292,31.042,69.333,69.333,69.333
			c38.292,0,69.333-31.041,69.333-69.333C141.333,33.708,110.292,2.667,72,2.667L72,2.667z"/>
		<path fill="#FFFFFF" d="M72,8.667c34.922,0,63.333,28.411,63.333,63.333S106.922,135.333,72,135.333S8.667,106.922,8.667,72
			S37.078,8.667,72,8.667 M72,2.667C33.708,2.667,2.667,33.708,2.667,72c0,38.292,31.042,69.333,69.333,69.333
			c38.292,0,69.333-31.041,69.333-69.333C141.333,33.708,110.292,2.667,72,2.667L72,2.667z"/>
	</g>
</g>
<g>
	<g>
		<path fill="#FFFFFF" d="M72,11.667c-33.819,0-61.333,27.514-61.333,61.333S38.181,134.333,72,134.333S133.333,106.819,133.333,73
			S105.819,11.667,72,11.667z M71.502,17.667c5.73,0,11.259,0.876,16.462,2.501l-5.504,60.666H61.695l-5.533-60.987
			C61.037,18.438,66.18,17.667,71.502,17.667z M72,127.828c-10.773,0-19.672-8.898-19.672-19.672S61.227,88.484,72,88.484
			c10.773,0,19.672,8.898,19.672,19.672S82.773,127.828,72,127.828z"/>
		<path fill="#FFFFFF" d="M72,2.667C33.708,2.667,2.667,33.708,2.667,72c0,38.292,31.042,69.333,69.333,69.333
			c38.292,0,69.333-31.041,69.333-69.333C141.333,33.708,110.292,2.667,72,2.667z M72,136.333
			c-34.922,0-63.333-28.411-63.333-63.333S37.078,9.667,72,9.667S135.333,38.078,135.333,73S106.922,136.333,72,136.333z"/>
	</g>
</g>
</svg>
