<?xml version="1.0" encoding="utf-8"?>
<!-- Generator: Adobe Illustrator 16.0.4, SVG Export Plug-In . SVG Version: 6.00 Build 0)  -->
<!DOCTYPE svg PUBLIC "-//W3C//DTD SVG 1.1//EN" "http://www.w3.org/Graphics/SVG/1.1/DTD/svg11.dtd">
<svg version="1.1" id="Layer_1" xmlns="http://www.w3.org/2000/svg" xmlns:xlink="http://www.w3.org/1999/xlink" x="0px" y="0px"
	 width="144px" height="115.674px" viewBox="0 0 144 115.674" enable-background="new 0 0 144 115.674" xml:space="preserve">
<rect x="-31.334" y="-30.936" display="none" fill="#D4AF34" width="206.667" height="194.333"/>
<g>
	<g>
		<path fill="#FFFFFF" d="M130.25,91.033c0,3.105-2.519,5.625-5.625,5.625H19.375c-3.106,0-5.625-2.52-5.625-5.625l0,0
			c0-3.107,2.519-5.625,5.625-5.625h105.25C127.731,85.408,130.25,87.926,130.25,91.033L130.25,91.033z"/>
	</g>
	<g>
		<path fill="#FFFFFF" d="M130.25,68.902c0,3.106-2.519,5.625-5.625,5.625H19.375c-3.106,0-5.625-2.519-5.625-5.625l0,0
			c0-3.106,2.519-5.625,5.625-5.625h105.25C127.731,63.277,130.25,65.796,130.25,68.902L130.25,68.902z"/>
	</g>
	<g>
		<path fill="#FFFFFF" d="M130.25,46.772c0,3.106-2.519,5.625-5.625,5.625H19.375c-3.106,0-5.625-2.519-5.625-5.625l0,0
			c0-3.106,2.519-5.625,5.625-5.625h105.25C127.731,41.147,130.25,43.666,130.25,46.772L130.25,46.772z"/>
	</g>
	<g>
		<path fill="#FFFFFF" d="M130.25,24.641c0,3.106-2.519,5.625-5.625,5.625H19.375c-3.106,0-5.625-2.519-5.625-5.625l0,0
			c0-3.106,2.519-5.625,5.625-5.625h105.25C127.731,19.016,130.25,21.535,130.25,24.641L130.25,24.641z"/>
	</g>
</g>
<rect x="6.333" y="73.249" display="none" fill="#D4AF34" width="134.667" height="32.029"/>
<g display="none">
	<path display="inline" fill="#FFFFFF" d="M128.25,106.424v7.25H15.75v-7.25H128.25 M130.25,104.424H13.75v11.25h116.5V104.424
		L130.25,104.424z"/>
</g>
<g display="none">
	<g display="inline">
		<path fill="#FFFFFF" d="M128.25,54.156v7.25H15.75v-7.25H128.25 M130.25,52.156H13.75v11.25h116.5V52.156L130.25,52.156z"/>
	</g>
	<g display="inline">
		<path fill="#FFFFFF" d="M128.25,28.021v7.25H15.75v-7.25H128.25 M130.25,26.021H13.75v11.25h116.5V26.021L130.25,26.021z"/>
	</g>
	<g display="inline">
		<path fill="#FFFFFF" d="M78.422,106.424L72,112.846l-6.421-6.422H78.422 M83.25,104.424h-22.5L72,115.674L83.25,104.424
			L83.25,104.424z"/>
	</g>
	<g display="inline">
		<path fill="#FFFFFF" d="M72,2.829l6.422,6.421H65.579L72,2.829 M72,0L60.75,11.25h22.5L72,0L72,0z"/>
	</g>
	<g display="inline">
		<path fill="#FFFFFF" d="M128.25,80.29v7.25H15.75v-7.25H128.25 M130.25,78.29H13.75v11.25h116.5V78.29L130.25,78.29z"/>
	</g>
</g>
<rect x="6.333" y="12.017" display="none" fill="#D4AF34" width="134.667" height="21.632"/>
</svg>
